# xmcd
#
# Track frame offsets:
#	150
#	15444
#	30990
#	48613
#	72638
#	92066
#	111021
#	125710
#	138847
#	157802
#	184756
#	199211
#	216947
#
# Disc length: 3258 seconds
# Revision: 1
# Processed by: cddbd v1.5.2PL0 Copyright (c) Steve Scherf et al.
# Submitted via: dBpowerAMP V12.0
#
DISCID=b40cb80d
DTITLE=Anthony Geraci and the Boston Blues All-Stars - Fifty Shades of Blue
DYEAR=2015
DGENRE=Blues
TTITLE0=Everything I Do Is Wrong
TTITLE1=Fifty Shades of Blue
TTITLE2=Sad But True
TTITLE3=Heard That Tutwiler Whistle Blow
TTITLE4=If You Want to Get to Heaven
TTITLE5=Don't Keep Me Waiting
TTITLE6=The Blues Never Sleeps
TTITLE7=Too Late for Coffee
TTITLE8=Diamonds and Pearls
TTITLE9=Cry a Million Tears
TTITLE10=In the Quicksand, Again [Instrumental]
TTITLE11=Your Turn to Cry
TTITLE12=Blues for David Maxwell [Instrumental]
EXTD=
EXTT0=
EXTT1=
EXTT2=
EXTT3=
EXTT4=
EXTT5=
EXTT6=
EXTT7=
EXTT8=
EXTT9=
EXTT10=
EXTT11=
EXTT12=
PLAYORDER=
